<svg xmlns="http://www.w3.org/2000/svg" viewBox="0 0 497.9 142.4"><linearGradient id="A" gradientUnits="userSpaceOnUse" x1="498.483" y1="42.585" x2="-9.529" y2="42.585"><stop offset="0" stop-color="#1EA8D8"/><stop offset="1" stop-color="#1F64AD"/></linearGradient><path d="M180.9 75.4l9.4-65.7h1.1l26.7 53.8 26.4-53.8h1.1l9.4 65.7h-6.4l-6.4-46.9L219 75.4h-1.6l-23.5-47.3-6.4 47.3h-6.6z" fill="url(#A)"/><path d="M259 78.9h-13.4l-5.4-39-19.2 39h-6l-19.4-39.2-5.4 39.2H177l10.4-72.6h6.1l24.6 49.6 24.2-49.6h6.2z" fill="url(#A)"/><linearGradient id="B" gradientUnits="userSpaceOnUse" x1="494.114" y1="42.875" x2="7.973" y2="42.204"><stop offset="0" stop-color="#1EA8D8"/><stop offset="1" stop-color="#1F64AD"/></linearGradient><path d="M484.3 23l-4.8 3.8c-2.7-3.6-5.9-6.2-9.5-8.2a27.68 27.68 0 0 0-12.2-2.8c-4.9 0-9.4 1.2-13.6 3.7s-7.4 5.7-9.6 9.7-3.5 8.7-3.5 13.7c0 7.7 2.6 14.1 7.7 19.3s11.5 7.7 19.3 7.7c8.6 0 15.7-3.5 21.4-10.4l4.8 3.7c-3.1 4-6.8 7.1-11.3 9.3s-9.6 3.3-15.3 3.3c-10.7 0-19.1-3.7-25.3-11.1-5.2-6.2-7.8-13.7-7.8-22.5 0-9.2 3.2-17 9.4-23.4s14.1-9.4 23.6-9.4c5.7 0 10.9 1.2 15.4 3.5 4.6 2.6 8.3 5.9 11.3 10.1z" fill="url(#B)"/><linearGradient id="C" gradientUnits="userSpaceOnUse" x1="494.114" y1="42.972" x2="7.973" y2="42.3"><stop offset="0" stop-color="#1EA8D8"/><stop offset="1" stop-color="#1F64AD"/></linearGradient><path d="M457.7 79.4c-11.6 0-21.1-4.1-27.9-12.2-5.7-6.8-8.6-15.1-8.6-24.7 0-10.1 3.5-18.7 10.4-25.7 6.9-6.9 15.6-10.5 26-10.5 6.2 0 11.9 1.3 16.9 3.8 5.1 2.6 9.3 6.2 12.5 10.9l1.8 2.6-10 8-2.1-2.8c-2.3-3.2-5.1-5.5-8.4-7.1s-6.8-2.4-10.8-2.4c-4.3 0-8.2 1.1-11.8 3.2-3.7 2.1-6.4 4.9-8.4 8.5s-3 7.6-3 12.1c0 6.8 2.2 12.4 6.6 16.9 4.5 4.5 10 6.7 16.9 6.7 7.6 0 13.7-3 18.8-9.1l2.1-2.5 10 7.9-2 2.7c-3.4 4.4-7.6 7.9-12.6 10.3-4.7 2.2-10.4 3.4-16.4 3.4z" fill="url(#C)"/><linearGradient id="D" gradientUnits="userSpaceOnUse" x1="384.897" y1="56.283" x2="384.897" y2="56.283"><stop offset="0" stop-color="#1EA8D8"/><stop offset="1" stop-color="#1F64AD"/></linearGradient><linearGradient id="E" gradientUnits="userSpaceOnUse" x1="384.897" y1="56.283" x2="384.897" y2="56.283"><stop offset="0" stop-color="#fff"/><stop offset="1"/></linearGradient><path d="M384.9,56.3" fill="url(#D)" stroke="url(#E)" stroke-width="10" stroke-miterlimit="10"/><linearGradient id="F" gradientUnits="userSpaceOnUse" x1="498.483" y1="43.306" x2="-9.529" y2="43.306"><stop offset="0" stop-color="#1EA8D8"/><stop offset="1" stop-color="#1F64AD"/></linearGradient><path d="M377.4 79.7c-11.5 0-22.2-5-29.2-13.7l-30.1-36.5c-4-4.3-9.7-6.8-15.8-6.8-11.7 0-21.2 9.1-21.2 20.5 0 11.2 9.5 20.5 21.2 20.5 5.7 0 11.1-2.2 15-6l2.6-3 12.4 10.1c-7 9.3-18.2 14.9-30 14.9-20.5 0-37.2-16.3-37.2-36.4s16.7-36.4 37.2-36.4c11.8 0 23 5.6 30 14.9l28.3 34.3c4 4.9 10.2 7.8 16.9 7.8 11.7 0 21.2-9.1 21.2-20.5 0-11.2-9.5-20.5-21.2-20.5-6.6 0-12.7 2.9-16.7 7.9l-12.5-10C355.4 12 366.1 7 377.5 7c20.5 0 37.2 16.3 37.2 36.4 0 20-16.7 36.3-37.3 36.3z" fill="url(#F)"/><linearGradient id="G" gradientUnits="userSpaceOnUse" x1="661.89" y1="121.014" x2="195.055" y2="124.147"><stop offset="0" stop-color="#1EA8D8"/><stop offset="1" stop-color="#1F64AD"/></linearGradient><path d="M222.4,115.1h1.6v17.7h-1.6V115.1z" fill="url(#G)"/><linearGradient id="H" gradientUnits="userSpaceOnUse" x1="661.889" y1="120.855" x2="195.054" y2="123.988"><stop offset="0" stop-color="#1EA8D8"/><stop offset="1" stop-color="#1F64AD"/></linearGradient><path d="M227.9 114.7c.4 0 .7.1 1 .4s.4.6.4 1-.1.7-.4 1-.6.4-1 .4-.7-.1-1-.4-.4-.6-.4-1 .1-.7.4-1 .6-.4 1-.4zm-.8 5.3h1.6v12.8h-1.6V120z" fill="url(#H)"/><linearGradient id="I" gradientUnits="userSpaceOnUse" x1="661.89" y1="120.983" x2="195.055" y2="124.116"><stop offset="0" stop-color="#1EA8D8"/><stop offset="1" stop-color="#1F64AD"/></linearGradient><path d="M237.1 115.1v1.6c-.6-.3-1.1-.4-1.5-.4-.3 0-.6.1-.8.2s-.3.3-.4.5-.1.6-.1 1.3v1.7h2.6v1.4h-2.6v11.3h-1.6v-11.3h-1.5V120h1.6v-2c0-1 .1-1.5.3-1.9s.5-.7.9-1c.4-.2.9-.4 1.4-.4.3 0 1 .2 1.7.4z" fill="url(#I)"/><linearGradient id="J" gradientUnits="userSpaceOnUse" x1="661.907" y1="123.611" x2="195.072" y2="126.744"><stop offset="0" stop-color="#1EA8D8"/><stop offset="1" stop-color="#1F64AD"/></linearGradient><path d="M249.6 128.6l1.3.8c-.5.9-1 1.6-1.5 2.1-.6.6-1.2 1-1.9 1.2s-1.5.4-2.4.4c-2 0-3.6-.7-4.7-2-1.2-1.3-1.7-2.9-1.7-4.6 0-1.6.5-3.1 1.4-4.3 1.2-1.6 2.9-2.4 4.9-2.4 2.1 0 3.7.9 5 2.5.9 1.2 1.3 2.6 1.3 4.3h-11.2a5.94 5.94 0 0 0 1.3 3.7c.9 1 2 1.4 3.3 1.4.7 0 1.2-.1 1.8-.4.6-.2 1.1-.5 1.5-.9.8-.4 1.2-1.1 1.6-1.8zm0-3.5c-.2-.9-.5-1.5-1-2.1-.4-.5-1-1-1.6-1.2-.7-.3-1.3-.5-2.1-.5-1.2 0-2.2.4-3.1 1.2-.7.6-1.2 1.4-1.4 2.6h9.2z" fill="url(#J)"/><linearGradient id="K" gradientUnits="userSpaceOnUse" x1="661.891" y1="121.226" x2="195.056" y2="124.36"><stop offset="0" stop-color="#1EA8D8"/><stop offset="1" stop-color="#1F64AD"/></linearGradient><path d="M254.2,115.1h1.6v17.7h-1.6V115.1z" fill="url(#K)"/><linearGradient id="L" gradientUnits="userSpaceOnUse" x1="661.909" y1="123.793" x2="195.074" y2="126.926"><stop offset="0" stop-color="#1EA8D8"/><stop offset="1" stop-color="#1F64AD"/></linearGradient><path d="M264.9 119.7c1.9 0 3.5.7 4.7 2.1 1.2 1.2 1.7 2.8 1.7 4.6s-.6 3.4-1.8 4.7-2.8 2-4.6 2c-1.9 0-3.5-.7-4.6-2s-1.8-2.9-1.8-4.7c0-1.7.6-3.3 1.7-4.6 1.2-1.4 2.8-2.1 4.7-2.1zm-.1 1.6c-1.3 0-2.5.5-3.4 1.5-1 1-1.4 2.2-1.4 3.7 0 1 .2 1.8.7 2.6s1.1 1.4 1.7 1.8c.8.5 1.5.7 2.4.7s1.7-.2 2.4-.7c.8-.5 1.3-1.1 1.7-1.8.5-.8.7-1.6.7-2.6 0-1.4-.5-2.7-1.4-3.7s-2-1.5-3.4-1.5z" fill="url(#L)"/><linearGradient id="M" gradientUnits="userSpaceOnUse" x1="661.908" y1="123.72" x2="195.073" y2="126.853"><stop offset="0" stop-color="#1EA8D8"/><stop offset="1" stop-color="#1F64AD"/></linearGradient><path d="M274.3 120h1.6v2.3c.7-.9 1.3-1.5 2.1-1.9.8-.5 1.6-.7 2.5-.7 1 0 1.7.3 2.5.8s1.2 1.2 1.5 1.9c.4.9.5 2.1.5 3.8v6.5h-1.6v-6.1c0-1.4-.1-2.4-.2-3-.2-.9-.6-1.4-1.1-1.9a3.22 3.22 0 0 0-2-.7c-1 0-1.8.3-2.6 1s-1.2 1.4-1.5 2.4c-.2.7-.2 1.8-.2 3.5v4.7h-1.6l.1-12.6c-.1 0 0 0 0 0z" fill="url(#M)"/><linearGradient id="N" gradientUnits="userSpaceOnUse" x1="661.926" y1="126.345" x2="195.09" y2="129.478"><stop offset="0" stop-color="#1EA8D8"/><stop offset="1" stop-color="#1F64AD"/></linearGradient><path d="M299.1 120h1.6v10.2c0 1.8-.2 3.1-.5 3.9-.4 1.2-1.2 2.1-2.2 2.7-1.1.7-2.3 1-3.7 1-1.1 0-2-.2-2.9-.5s-1.5-.8-2-1.2c-.6-.5-1.1-1.2-1.4-2.3h1.7c.5.9 1.1 1.4 1.8 1.8.8.4 1.6.6 2.8.6 1.1 0 2-.2 2.8-.6s1.2-1 1.6-1.5c.3-.7.5-1.6.5-3.1v-.7c-.6.8-1.3 1.3-2.2 1.8-.9.4-1.8.7-2.8.7-1.2 0-2.2-.3-3.2-.9a6.34 6.34 0 0 1-2.3-2.3c-.6-1-.8-2-.8-3.3 0-1.2.3-2.3.9-3.3a5.56 5.56 0 0 1 2.4-2.4c1-.6 2-.9 3.2-.9 1 0 1.8.2 2.6.6s1.5 1.1 2.3 1.9V120h-.2zm-4.8 1.3c-.9 0-1.7.2-2.5.7s-1.3 1.1-1.8 1.8c-.5.8-.7 1.6-.7 2.6 0 1.4.5 2.6 1.3 3.5.9 1 2.1 1.3 3.6 1.3s2.6-.5 3.6-1.3c.9-.9 1.3-2.1 1.3-3.6 0-1-.2-1.8-.6-2.6s-1-1.3-1.7-1.8-1.6-.6-2.5-.6z" fill="url(#N)"/><linearGradient id="O" gradientUnits="userSpaceOnUse" x1="661.894" y1="121.603" x2="195.059" y2="124.736"><stop offset="0" stop-color="#1EA8D8"/><stop offset="1" stop-color="#1F64AD"/></linearGradient><path d="M310.3,115.1h1.6v17.7h-1.6V115.1z" fill="url(#O)"/><linearGradient id="P" gradientUnits="userSpaceOnUse" x1="661.911" y1="124.121" x2="195.076" y2="127.254"><stop offset="0" stop-color="#1EA8D8"/><stop offset="1" stop-color="#1F64AD"/></linearGradient><path d="M325.6 128.6l1.3.8c-.5.9-1 1.6-1.5 2.1-.6.6-1.2 1-1.9 1.2s-1.5.4-2.4.4c-2 0-3.6-.7-4.7-2-1.2-1.3-1.7-2.9-1.7-4.6 0-1.6.5-3.1 1.4-4.3 1.2-1.6 2.9-2.4 4.9-2.4 2.1 0 3.7.9 5 2.5.9 1.2 1.3 2.6 1.3 4.3h-11.2a5.94 5.94 0 0 0 1.3 3.7c.9 1 2 1.4 3.3 1.4.7 0 1.2-.1 1.8-.4.6-.2 1.1-.5 1.5-.9.6-.4 1-1.1 1.6-1.8zm0-3.5c-.2-.9-.5-1.5-1-2.1-.4-.5-1-1-1.6-1.2-.7-.3-1.3-.5-2.1-.5-1.2 0-2.2.4-3.1 1.2-.7.6-1.2 1.4-1.4 2.6h9.2z" fill="url(#P)"/><linearGradient id="Q" gradientUnits="userSpaceOnUse" x1="661.912" y1="124.318" x2="195.077" y2="127.451"><stop offset="0" stop-color="#1EA8D8"/><stop offset="1" stop-color="#1F64AD"/></linearGradient><path d="M342.5 120v12.8H341v-2.2c-.7.9-1.4 1.4-2.2 1.9-.9.4-1.7.7-2.7.7-1.7 0-3.3-.7-4.5-1.9-1.2-1.3-1.8-2.9-1.8-4.8 0-1.8.6-3.4 1.8-4.7s2.8-1.9 4.5-1.9c1.1 0 1.9.2 2.8.7s1.5 1.2 2.1 2v-2.3h1.5v-.3zm-6.3 1.3c-.9 0-1.7.2-2.4.7-.8.5-1.3 1.1-1.8 1.9s-.7 1.6-.7 2.6c0 .9.2 1.7.7 2.6s1.1 1.4 1.8 1.9c.8.5 1.5.7 2.4.7s1.7-.2 2.5-.7 1.3-1.1 1.8-1.8c.4-.8.7-1.6.7-2.6 0-1.4-.5-2.7-1.4-3.7-1-1.2-2.2-1.6-3.6-1.6z" fill="url(#Q)"/><linearGradient id="R" gradientUnits="userSpaceOnUse" x1="661.911" y1="124.114" x2="195.076" y2="127.247"><stop offset="0" stop-color="#1EA8D8"/><stop offset="1" stop-color="#1F64AD"/></linearGradient><path d="M345.5 120h1.6v1.8c.5-.8 1-1.2 1.5-1.6s1.1-.6 1.6-.6.9.2 1.4.5l-.9 1.3c-.3-.2-.6-.2-.9-.2-.6 0-1.1.2-1.5.7-.5.5-.9 1.2-1.2 2.1-.2.8-.3 2.2-.3 4.4v4.3h-1.5l.2-12.7z" fill="url(#R)"/><linearGradient id="S" gradientUnits="userSpaceOnUse" x1="661.912" y1="124.252" x2="195.077" y2="127.385"><stop offset="0" stop-color="#1EA8D8"/><stop offset="1" stop-color="#1F64AD"/></linearGradient><path d="M353.6 120h1.6v2.3c.7-.9 1.3-1.5 2.1-1.9s1.6-.7 2.5-.7c1 0 1.7.3 2.5.8a4.54 4.54 0 0 1 1.5 1.9c.3.8.5 2.1.5 3.8v6.5h-1.5v-6.1c0-1.4-.1-2.4-.2-3-.2-.9-.6-1.4-1.1-1.9a3.22 3.22 0 0 0-2-.7c-1 0-1.8.3-2.6 1s-1.2 1.4-1.5 2.4c-.2.7-.2 1.8-.2 3.5v4.7h-1.6V120z" fill="url(#S)"/><linearGradient id="T" gradientUnits="userSpaceOnUse" x1="661.895" y1="121.798" x2="195.06" y2="124.931"><stop offset="0" stop-color="#1EA8D8"/><stop offset="1" stop-color="#1F64AD"/></linearGradient><path d="M368.4 114.7c.4 0 .7.1 1 .4s.4.6.4 1-.1.7-.4 1-.6.4-1 .4-.7-.1-1-.4-.4-.6-.4-1 .1-.7.4-1 .6-.4 1-.4zm-.9 5.3h1.6v12.8h-1.6V120z" fill="url(#T)"/><linearGradient id="U" gradientUnits="userSpaceOnUse" x1="661.912" y1="124.379" x2="195.077" y2="127.512"><stop offset="0" stop-color="#1EA8D8"/><stop offset="1" stop-color="#1F64AD"/></linearGradient><path d="M372.4 120h1.6v2.3c.7-.9 1.3-1.5 2.1-1.9.8-.5 1.6-.7 2.5-.7 1 0 1.7.3 2.5.8a4.54 4.54 0 0 1 1.5 1.9c.4.9.5 2.1.5 3.8v6.5h-1.6v-6.1c0-1.4-.1-2.4-.2-3-.2-.9-.6-1.4-1.1-1.9a3.22 3.22 0 0 0-2-.7c-1 0-1.8.3-2.6 1s-1.2 1.4-1.5 2.4c-.2.7-.2 1.8-.2 3.5v4.7h-1.5V120z" fill="url(#U)"/><linearGradient id="V" gradientUnits="userSpaceOnUse" x1="661.93" y1="127.003" x2="195.095" y2="130.137"><stop offset="0" stop-color="#1EA8D8"/><stop offset="1" stop-color="#1F64AD"/></linearGradient><path d="M397.2 120h1.6v10.2c0 1.8-.2 3.1-.5 3.9-.4 1.2-1.2 2.1-2.2 2.7-1.1.7-2.3 1-3.7 1-1.1 0-2-.2-2.9-.5s-1.5-.8-2-1.2c-.6-.5-1.1-1.2-1.4-2.3h1.7c.5.9 1.1 1.4 1.8 1.8s1.6.6 2.8.6c1.1 0 2-.2 2.8-.6s1.2-1 1.6-1.5c.3-.7.5-1.6.5-3.1v-.7c-.6.8-1.3 1.3-2.2 1.8-.9.4-1.8.7-2.8.7-1.2 0-2.2-.3-3.2-.9a6.34 6.34 0 0 1-2.3-2.3c-.6-1-.8-2-.8-3.3 0-1.2.3-2.3.9-3.3a5.56 5.56 0 0 1 2.4-2.4c1-.6 2-.9 3.2-.9 1 0 1.8.2 2.6.6s1.5 1.1 2.3 1.9V120h-.2zm-4.6 1.3c-.9 0-1.7.2-2.5.7s-1.3 1.1-1.8 1.8c-.5.8-.7 1.6-.7 2.6 0 1.4.5 2.6 1.3 3.5.9 1 2.1 1.3 3.6 1.3s2.6-.5 3.6-1.3c1-.9 1.3-2.1 1.3-3.6 0-1-.2-1.8-.6-2.6s-1-1.3-1.7-1.8-1.6-.6-2.5-.6z" fill="url(#V)"/><linearGradient id="W" gradientUnits="userSpaceOnUse" x1="661.915" y1="124.726" x2="195.08" y2="127.86"><stop offset="0" stop-color="#1EA8D8"/><stop offset="1" stop-color="#1F64AD"/></linearGradient><path d="M414.9 121.5l-1.1 1.1c-.9-.9-1.6-1.2-2.5-1.2-.5 0-1 .2-1.3.5-.4.4-.6.8-.6 1.2s.2.8.5 1.2 1 .9 1.9 1.3c1.2.7 2 1.2 2.4 1.8s.7 1.2.7 2c0 1.1-.4 1.9-1.1 2.7s-1.6 1.1-2.7 1.1c-.7 0-1.3-.2-2-.5s-1.2-.8-1.6-1.3l1-1.2c.8 1 1.6 1.4 2.6 1.4.7 0 1.2-.2 1.6-.7.5-.4.7-1 .7-1.4 0-.5-.2-.9-.5-1.2-.3-.4-1-.8-2-1.3-1.2-.6-1.8-1.2-2.3-1.7-.4-.6-.6-1.2-.6-2 0-1 .3-1.7 1-2.4s1.4-1 2.4-1c1.2-.2 2.3.4 3.5 1.6z" fill="url(#W)"/><linearGradient id="X" gradientUnits="userSpaceOnUse" x1="661.916" y1="124.857" x2="195.081" y2="127.99"><stop offset="0" stop-color="#1EA8D8"/><stop offset="1" stop-color="#1F64AD"/></linearGradient><path d="M423.5 119.7c1.9 0 3.5.7 4.7 2.1 1.2 1.2 1.7 2.8 1.7 4.6s-.6 3.4-1.8 4.7-2.8 2-4.6 2c-1.9 0-3.5-.7-4.6-2s-1.8-2.9-1.8-4.7c0-1.7.6-3.3 1.7-4.6 1.3-1.4 2.8-2.1 4.7-2.1zm0 1.6c-1.3 0-2.5.5-3.4 1.5-1 1-1.4 2.2-1.4 3.7 0 1 .2 1.8.7 2.6s1.1 1.4 1.7 1.8c.8.5 1.5.7 2.4.7s1.7-.2 2.4-.7c.8-.5 1.3-1.1 1.7-1.8.5-.8.7-1.6.7-2.6 0-1.4-.5-2.7-1.4-3.7-1-1-2.1-1.5-3.4-1.5z" fill="url(#X)"/><linearGradient id="Y" gradientUnits="userSpaceOnUse" x1="661.899" y1="122.424" x2="195.064" y2="125.558"><stop offset="0" stop-color="#1EA8D8"/><stop offset="1" stop-color="#1F64AD"/></linearGradient><path d="M432.7,115.1h1.6v17.7h-1.6V115.1z" fill="url(#Y)"/><linearGradient id="Z" gradientUnits="userSpaceOnUse" x1="661.917" y1="124.999" x2="195.081" y2="128.132"><stop offset="0" stop-color="#1EA8D8"/><stop offset="1" stop-color="#1F64AD"/></linearGradient><path d="M437.4 120h1.6v6c0 1.4.1 2.5.2 3 .2.8.7 1.4 1.3 1.8.7.5 1.4.7 2.3.7s1.6-.2 2.2-.7 1.1-1.1 1.2-1.7c.2-.5.2-1.5.2-3.2v-6h1.6v6.2c0 1.7-.2 3.1-.6 3.9-.4.9-1 1.6-1.8 2.1-.9.5-1.8.8-3 .8s-2.2-.3-3-.8-1.4-1.2-1.8-2.1-.6-2.2-.6-4v-6h.2z" fill="url(#Z)"/><linearGradient id="a" gradientUnits="userSpaceOnUse" x1="661.901" y1="122.657" x2="195.066" y2="125.791"><stop offset="0" stop-color="#1EA8D8"/><stop offset="1" stop-color="#1F64AD"/></linearGradient><path d="M453.1 115.3h1.6v4.7h2.5v1.4h-2.5v11.3h-1.6v-11.3h-2.2V120h2.2v-4.7z" fill="url(#a)"/><linearGradient id="b" gradientUnits="userSpaceOnUse" x1="661.899" y1="122.414" x2="195.064" y2="125.547"><stop offset="0" stop-color="#1EA8D8"/><stop offset="1" stop-color="#1F64AD"/></linearGradient><path d="M460.1 114.7c.4 0 .7.1 1 .4s.4.6.4 1-.1.7-.4 1-.6.4-1 .4-.7-.1-1-.4-.4-.6-.4-1 .1-.7.4-1 .7-.4 1-.4zm-.8 5.3h1.6v12.8h-1.6V120z" fill="url(#b)"/><linearGradient id="c" gradientUnits="userSpaceOnUse" x1="661.918" y1="125.169" x2="195.083" y2="128.302"><stop offset="0" stop-color="#1EA8D8"/><stop offset="1" stop-color="#1F64AD"/></linearGradient><path d="M470.1 119.7c1.9 0 3.5.7 4.7 2.1 1.2 1.2 1.7 2.8 1.7 4.6s-.6 3.4-1.8 4.7-2.8 2-4.6 2c-1.9 0-3.5-.7-4.6-2s-1.8-2.9-1.8-4.7c0-1.7.6-3.3 1.7-4.6 1.1-1.4 2.7-2.1 4.7-2.1zm0 1.6c-1.3 0-2.5.5-3.4 1.5-1 1-1.4 2.2-1.4 3.7 0 1 .2 1.8.7 2.6s1.1 1.4 1.7 1.8c.8.5 1.5.7 2.4.7s1.7-.2 2.4-.7c.8-.5 1.3-1.1 1.7-1.8.5-.8.7-1.6.7-2.6 0-1.4-.5-2.7-1.4-3.7-1-1-2.2-1.5-3.4-1.5z" fill="url(#c)"/><linearGradient id="d" gradientUnits="userSpaceOnUse" x1="661.917" y1="125.097" x2="195.082" y2="128.23"><stop offset="0" stop-color="#1EA8D8"/><stop offset="1" stop-color="#1F64AD"/></linearGradient><path d="M479.4 120h1.6v2.3c.7-.9 1.3-1.5 2.1-1.9s1.6-.7 2.5-.7c1 0 1.7.3 2.5.8s1.2 1.2 1.5 1.9c.3.8.5 2.1.5 3.8v6.5h-1.6v-6.1c0-1.4-.1-2.4-.2-3-.2-.9-.6-1.4-1.1-1.9a3.22 3.22 0 0 0-2-.7c-1 0-1.8.3-2.6 1s-1.2 1.4-1.5 2.4c-.2.7-.2 1.8-.2 3.5v4.7h-1.6l.1-12.6c-.1 0 0 0 0 0z" fill="url(#d)"/><linearGradient id="e" gradientUnits="userSpaceOnUse" x1="511.201" y1="60.705" x2="-14.044" y2="60.705"><stop offset="0" stop-color="#1EA8D8"/><stop offset="1" stop-color="#1F64AD"/></linearGradient><path d="M94.1 22.8h14.2l14.4 34.8 15.9-34.8h14.2l-34.7 75.7h-14.4l11.4-24.4-21-51.3z" fill="url(#e)"/><linearGradient id="f" gradientUnits="userSpaceOnUse" x1="498.483" y1="42.488" x2="-9.529" y2="42.488"><stop offset="0" stop-color="#1EA8D8"/><stop offset="1" stop-color="#1F64AD"/></linearGradient><path d="M12,75.3l9.4-65.7h1.1l26.7,53.8L75.7,9.7h1.1l9.4,65.7h-6.4l-6.4-46.9L50.1,75.3h-1.6L25,28l-6.4,47.3H12z" fill="url(#f)"/><path d="M90.1 78.8H76.7l-5.4-39-19.2 39h-6L26.7 39.6l-5.4 39.2H8.1L18.5 6.2h6.1l24.5 49.6L73.4 6.2h6.2z" fill="url(#f)"/><linearGradient id="g" gradientUnits="userSpaceOnUse" x1="577.716" y1="97.811" x2="-17.98" y2="97.811"><stop offset="0" stop-color="#1EA8D8"/><stop offset="1" stop-color="#1F64AD"/></linearGradient><path d="M7.4 96.4h83.2v2.9H7.4z" fill="url(#g)"/><linearGradient id="h" gradientUnits="userSpaceOnUse" x1="499.138" y1="97.811" x2="-8.874" y2="97.811"><stop offset="0" stop-color="#1EA8D8"/><stop offset="1" stop-color="#1F64AD"/></linearGradient><path d="M135.3 96.4h354.6v2.9H135.3z" fill="url(#h)"/></svg>